<svg id="Layer_1" data-name="Layer 1" xmlns="http://www.w3.org/2000/svg" viewBox="0 0 512 512"><defs><style>.cls-1{fill:#fff;}.cls-2{fill:#3a7;}.cls-3{fill:#039;}</style></defs><path class="cls-1" d="M317.62,208.87a36.54,36.54,0,0,1-36.48,36.61H175.75a36.55,36.55,0,0,1-36.49-36.61V176.33c0-60.65,49-109.82,109.46-109.82h2a67,67,0,0,1,66.89,67.11Z"/><path class="cls-2" d="M385.79,30.32Q329.78,0,257.78,0,184,0,127.1,31.22t-88.45,89.2Q7.08,178.41,7.09,256t32,135.58q32,58,88.9,89.2T257.78,512q60.44,0,109.34-22.3t81.34-61.55a223.17,223.17,0,0,0,44.9-88.3H331.56Q309.33,388,252.44,388q-38.22,0-64.45-24.53t-29.78-70.91h344a390.18,390.18,0,0,0,2.66-44.6q0-74.92-31.55-131.12T385.79,30.32ZM304.38,201a31.11,31.11,0,0,1-31.07,31.16H183.57A31.11,31.11,0,0,1,152.51,201V173.31c0-51.64,41.73-93.5,93.2-93.5h1.71a57.05,57.05,0,0,1,57,57.13Z"/><path class="cls-3" d="M230.39,119.91a38,38,0,0,0-37.92,38,38.36,38.36,0,0,0,.26,4.31,21.21,21.21,0,1,1,25.42,31.67A37.56,37.56,0,0,0,230.39,196a38,38,0,0,0,0-76.08Z"/></svg>